<?xml version="1.0" encoding="UTF-8" standalone="no"?>
<svg
   xmlns:dc="http://purl.org/dc/elements/1.1/"
   xmlns:cc="http://creativecommons.org/ns#"
   xmlns:rdf="http://www.w3.org/1999/02/22-rdf-syntax-ns#"
   xmlns:svg="http://www.w3.org/2000/svg"
   xmlns="http://www.w3.org/2000/svg"
   xmlns:sodipodi="http://sodipodi.sourceforge.net/DTD/sodipodi-0.dtd"
   xmlns:inkscape="http://www.inkscape.org/namespaces/inkscape"
   version="1.1"
   viewBox="0 0 1460.3813 73.997467"
   stroke-miterlimit="10"
   id="svg357"
   sodipodi:docname="single_wave_smooth_cropped_opacity20.svg"
   width="1460.3813"
   height="73.997467"
   style="fill:none;stroke:none;stroke-linecap:square;stroke-miterlimit:10"
   inkscape:version="0.92.5 (2060ec1f9f, 2020-04-08)">
  <metadata
     id="metadata363">
    <rdf:RDF>
      <cc:Work
         rdf:about="">
        <dc:format>image/svg+xml</dc:format>
        <dc:type
           rdf:resource="http://purl.org/dc/dcmitype/StillImage" />
        <dc:title></dc:title>
      </cc:Work>
    </rdf:RDF>
  </metadata>
  <defs
     id="defs361" />
  <sodipodi:namedview
     pagecolor="#ffffff"
     bordercolor="#666666"
     borderopacity="1"
     objecttolerance="10"
     gridtolerance="10"
     guidetolerance="10"
     inkscape:pageopacity="0"
     inkscape:pageshadow="2"
     inkscape:window-width="2308"
     inkscape:window-height="996"
     id="namedview359"
     showgrid="false"
     inkscape:zoom="0.4296875"
     inkscape:cx="775.88156"
     inkscape:cy="36.9999"
     inkscape:window-x="0"
     inkscape:window-y="56"
     inkscape:window-maximized="0"
     inkscape:current-layer="g355" />
  <clipPath
     id="p.0">
    <path
       d="M 0,0 H 1536 V 384 H 0 Z"
       id="path2"
       inkscape:connector-curvature="0"
       style="clip-rule:nonzero" />
  </clipPath>
  <g
     clip-path="url(#p.0)"
     id="g355"
     transform="translate(0.8997428,-155.00243)">
    <path
       d="M 0,0 H 1536 V 384 H 0 Z"
       id="path5"
       inkscape:connector-curvature="0"
       style="fill:#000000;fill-opacity:0;fill-rule:evenodd;opacity:0.2" />
    <path
       d="m -0.8997428,156.50243 v 0 c 7.1989193,0 14.1029898,3.74004 19.1933938,10.39734 5.090405,6.6573 7.950165,15.68654 7.950165,25.10139 H -0.8997428 Z"
       id="path7"
       inkscape:connector-curvature="0"
       style="fill:#000000;fill-opacity:0;fill-rule:evenodd;opacity:0.2" />
    <path
       d="m -0.8997428,156.50243 v 0 c 7.1989193,0 14.1029898,3.74004 19.1933938,10.39734 5.090405,6.6573 7.950165,15.68654 7.950165,25.10139"
       id="path9"
       inkscape:connector-curvature="0"
       style="fill:#000000;fill-opacity:0;fill-rule:evenodd;opacity:0.2" />
    <path
       d="m -0.8997428,156.50243 v 0 c 7.1989193,0 14.1029898,3.74004 19.1933938,10.39734 5.090405,6.6573 7.950165,15.68654 7.950165,25.10139"
       id="path11"
       inkscape:connector-curvature="0"
       style="fill-rule:evenodd;stroke:#847791;stroke-width:3;stroke-linecap:butt;stroke-linejoin:round;opacity:0.2" />
    <path
       d="m 53.387375,227.4999 v 0 c -7.198917,0 -14.102989,-3.74004 -19.193394,-10.39734 -5.090405,-6.6573 -7.950165,-15.68655 -7.950165,-25.10139 h 27.143559 z"
       id="path13"
       inkscape:connector-curvature="0"
       style="fill:#000000;fill-opacity:0;fill-rule:evenodd;opacity:0.2" />
    <path
       d="m 53.387375,227.4999 v 0 c -7.198917,0 -14.102989,-3.74004 -19.193394,-10.39734 -5.090405,-6.6573 -7.950165,-15.68655 -7.950165,-25.10139"
       id="path15"
       inkscape:connector-curvature="0"
       style="fill:#000000;fill-opacity:0;fill-rule:evenodd;opacity:0.2" />
    <path
       d="m 53.387375,227.4999 v 0 c -7.198917,0 -14.102989,-3.74004 -19.193394,-10.39734 -5.090405,-6.6573 -7.950165,-15.68655 -7.950165,-25.10139"
       id="path17"
       inkscape:connector-curvature="0"
       style="fill-rule:evenodd;stroke:#847791;stroke-width:3;stroke-linecap:butt;stroke-linejoin:round;opacity:0.2" />
    <path
       d="m 53.127808,227.4999 v 0 c 7.198917,0 14.102989,-3.74004 19.19339,-10.39734 5.090408,-6.6573 7.950165,-15.68655 7.950165,-25.10139 H 53.127808 Z"
       id="path19"
       inkscape:connector-curvature="0"
       style="fill:#000000;fill-opacity:0;fill-rule:evenodd;opacity:0.2" />
    <path
       d="m 53.127808,227.4999 v 0 c 7.198917,0 14.102989,-3.74004 19.19339,-10.39734 5.090408,-6.6573 7.950165,-15.68655 7.950165,-25.10139"
       id="path21"
       inkscape:connector-curvature="0"
       style="fill:#000000;fill-opacity:0;fill-rule:evenodd;opacity:0.2" />
    <path
       d="m 53.127808,227.4999 v 0 c 7.198917,0 14.102989,-3.74004 19.19339,-10.39734 5.090408,-6.6573 7.950165,-15.68655 7.950165,-25.10139"
       id="path23"
       inkscape:connector-curvature="0"
       style="fill-rule:evenodd;stroke:#847791;stroke-width:3;stroke-linecap:butt;stroke-linejoin:round;opacity:0.2" />
    <path
       d="m 107.41492,156.50243 v 0 c -7.19892,0 -14.102984,3.74004 -19.193393,10.39734 -5.090401,6.6573 -7.950165,15.68654 -7.950165,25.10139 h 27.143558 z"
       id="path25"
       inkscape:connector-curvature="0"
       style="fill:#000000;fill-opacity:0;fill-rule:evenodd;opacity:0.2" />
    <path
       d="m 107.41492,156.50243 v 0 c -7.19892,0 -14.102984,3.74004 -19.193393,10.39734 -5.090401,6.6573 -7.950165,15.68654 -7.950165,25.10139"
       id="path27"
       inkscape:connector-curvature="0"
       style="fill:#000000;fill-opacity:0;fill-rule:evenodd;opacity:0.2" />
    <path
       d="m 107.41492,156.50243 v 0 c -7.19892,0 -14.102984,3.74004 -19.193393,10.39734 -5.090401,6.6573 -7.950165,15.68654 -7.950165,25.10139"
       id="path29"
       inkscape:connector-curvature="0"
       style="fill-rule:evenodd;stroke:#847791;stroke-width:3;stroke-linecap:butt;stroke-linejoin:round;opacity:0.2" />
    <path
       d="m 107.41492,156.50243 v 0 c 7.19893,0 14.10299,3.74004 19.1934,10.39734 5.09041,6.6573 7.95017,15.68654 7.95017,25.10139 h -27.14356 z"
       id="path31"
       inkscape:connector-curvature="0"
       style="fill:#000000;fill-opacity:0;fill-rule:evenodd;opacity:0.2" />
    <path
       d="m 107.41492,156.50243 v 0 c 7.19893,0 14.10299,3.74004 19.1934,10.39734 5.09041,6.6573 7.95017,15.68654 7.95017,25.10139"
       id="path33"
       inkscape:connector-curvature="0"
       style="fill:#000000;fill-opacity:0;fill-rule:evenodd;opacity:0.2" />
    <path
       d="m 107.41492,156.50243 v 0 c 7.19893,0 14.10299,3.74004 19.1934,10.39734 5.09041,6.6573 7.95017,15.68654 7.95017,25.10139"
       id="path35"
       inkscape:connector-curvature="0"
       style="fill-rule:evenodd;stroke:#847791;stroke-width:3;stroke-linecap:butt;stroke-linejoin:round;opacity:0.2" />
    <path
       d="m 161.70204,227.4999 v 0 c -7.19891,0 -14.103,-3.74004 -19.19339,-10.39734 -5.09041,-6.6573 -7.95016,-15.68655 -7.95016,-25.10139 h 27.14355 z"
       id="path37"
       inkscape:connector-curvature="0"
       style="fill:#000000;fill-opacity:0;fill-rule:evenodd;opacity:0.2" />
    <path
       d="m 161.70204,227.4999 v 0 c -7.19891,0 -14.103,-3.74004 -19.19339,-10.39734 -5.09041,-6.6573 -7.95016,-15.68655 -7.95016,-25.10139"
       id="path39"
       inkscape:connector-curvature="0"
       style="fill:#000000;fill-opacity:0;fill-rule:evenodd;opacity:0.2" />
    <path
       d="m 161.70204,227.4999 v 0 c -7.19891,0 -14.103,-3.74004 -19.19339,-10.39734 -5.09041,-6.6573 -7.95016,-15.68655 -7.95016,-25.10139"
       id="path41"
       inkscape:connector-curvature="0"
       style="fill-rule:evenodd;stroke:#847791;stroke-width:3;stroke-linecap:butt;stroke-linejoin:round;opacity:0.2" />
    <path
       d="m 161.70204,227.4999 v 0 c 7.19891,0 14.103,-3.74004 19.19339,-10.39734 5.09041,-6.6573 7.95016,-15.68655 7.95016,-25.10139 h -27.14355 z"
       id="path43"
       inkscape:connector-curvature="0"
       style="fill:#000000;fill-opacity:0;fill-rule:evenodd;opacity:0.2" />
    <path
       d="m 161.70204,227.4999 v 0 c 7.19891,0 14.103,-3.74004 19.19339,-10.39734 5.09041,-6.6573 7.95016,-15.68655 7.95016,-25.10139"
       id="path45"
       inkscape:connector-curvature="0"
       style="fill:#000000;fill-opacity:0;fill-rule:evenodd;opacity:0.2" />
    <path
       d="m 161.70204,227.4999 v 0 c 7.19891,0 14.103,-3.74004 19.19339,-10.39734 5.09041,-6.6573 7.95016,-15.68655 7.95016,-25.10139"
       id="path47"
       inkscape:connector-curvature="0"
       style="fill-rule:evenodd;stroke:#847791;stroke-width:3;stroke-linecap:butt;stroke-linejoin:round;opacity:0.2" />
    <path
       d="m 215.98917,156.50243 v 0 c -7.19893,0 -14.103,3.74004 -19.1934,10.39734 -5.0904,6.6573 -7.95017,15.68654 -7.95017,25.10139 h 27.14357 z"
       id="path49"
       inkscape:connector-curvature="0"
       style="fill:#000000;fill-opacity:0;fill-rule:evenodd;opacity:0.2" />
    <path
       d="m 215.98917,156.50243 v 0 c -7.19893,0 -14.103,3.74004 -19.1934,10.39734 -5.0904,6.6573 -7.95017,15.68654 -7.95017,25.10139"
       id="path51"
       inkscape:connector-curvature="0"
       style="fill:#000000;fill-opacity:0;fill-rule:evenodd;opacity:0.2" />
    <path
       d="m 215.98917,156.50243 v 0 c -7.19893,0 -14.103,3.74004 -19.1934,10.39734 -5.0904,6.6573 -7.95017,15.68654 -7.95017,25.10139"
       id="path53"
       inkscape:connector-curvature="0"
       style="fill-rule:evenodd;stroke:#847791;stroke-width:3;stroke-linecap:butt;stroke-linejoin:round;opacity:0.2" />
    <path
       d="m 215.98917,156.50243 v 0 c 7.19891,0 14.10298,3.74004 19.19339,10.39734 5.09041,6.6573 7.95016,15.68654 7.95016,25.10139 h -27.14355 z"
       id="path55"
       inkscape:connector-curvature="0"
       style="fill:#000000;fill-opacity:0;fill-rule:evenodd;opacity:0.2" />
    <path
       d="m 215.98917,156.50243 v 0 c 7.19891,0 14.10298,3.74004 19.19339,10.39734 5.09041,6.6573 7.95016,15.68654 7.95016,25.10139"
       id="path57"
       inkscape:connector-curvature="0"
       style="fill:#000000;fill-opacity:0;fill-rule:evenodd;opacity:0.2" />
    <path
       d="m 215.98917,156.50243 v 0 c 7.19891,0 14.10298,3.74004 19.19339,10.39734 5.09041,6.6573 7.95016,15.68654 7.95016,25.10139"
       id="path59"
       inkscape:connector-curvature="0"
       style="fill-rule:evenodd;stroke:#847791;stroke-width:3;stroke-linecap:butt;stroke-linejoin:round;opacity:0.2" />
    <path
       d="m 270.27628,227.4999 v 0 c -7.19891,0 -14.103,-3.74004 -19.19339,-10.39734 -5.09041,-6.6573 -7.95017,-15.68655 -7.95017,-25.10139 h 27.14356 z"
       id="path61"
       inkscape:connector-curvature="0"
       style="fill:#000000;fill-opacity:0;fill-rule:evenodd;opacity:0.2" />
    <path
       d="m 270.27628,227.4999 v 0 c -7.19891,0 -14.103,-3.74004 -19.19339,-10.39734 -5.09041,-6.6573 -7.95017,-15.68655 -7.95017,-25.10139"
       id="path63"
       inkscape:connector-curvature="0"
       style="fill:#000000;fill-opacity:0;fill-rule:evenodd;opacity:0.2" />
    <path
       d="m 270.27628,227.4999 v 0 c -7.19891,0 -14.103,-3.74004 -19.19339,-10.39734 -5.09041,-6.6573 -7.95017,-15.68655 -7.95017,-25.10139"
       id="path65"
       inkscape:connector-curvature="0"
       style="fill-rule:evenodd;stroke:#847791;stroke-width:3;stroke-linecap:butt;stroke-linejoin:round;opacity:0.2" />
    <path
       d="m 269.4244,227.4999 v 0 c 7.19891,0 14.10297,-3.74004 19.19339,-10.39734 5.09039,-6.6573 7.95017,-15.68655 7.95017,-25.10139 H 269.4244 Z"
       id="path67"
       inkscape:connector-curvature="0"
       style="fill:#000000;fill-opacity:0;fill-rule:evenodd;opacity:0.2" />
    <path
       d="m 269.4244,227.4999 v 0 c 7.19891,0 14.10297,-3.74004 19.19339,-10.39734 5.09039,-6.6573 7.95017,-15.68655 7.95017,-25.10139"
       id="path69"
       inkscape:connector-curvature="0"
       style="fill:#000000;fill-opacity:0;fill-rule:evenodd;opacity:0.2" />
    <path
       d="m 269.4244,227.4999 v 0 c 7.19891,0 14.10297,-3.74004 19.19339,-10.39734 5.09039,-6.6573 7.95017,-15.68655 7.95017,-25.10139"
       id="path71"
       inkscape:connector-curvature="0"
       style="fill-rule:evenodd;stroke:#847791;stroke-width:3;stroke-linecap:butt;stroke-linejoin:round;opacity:0.2" />
    <path
       d="m 323.71152,156.50243 v 0 c -7.19891,0 -14.103,3.74004 -19.19339,10.39734 -5.09042,6.6573 -7.95017,15.68654 -7.95017,25.10139 h 27.14356 z"
       id="path73"
       inkscape:connector-curvature="0"
       style="fill:#000000;fill-opacity:0;fill-rule:evenodd;opacity:0.2" />
    <path
       d="m 323.71152,156.50243 v 0 c -7.19891,0 -14.103,3.74004 -19.19339,10.39734 -5.09042,6.6573 -7.95017,15.68654 -7.95017,25.10139"
       id="path75"
       inkscape:connector-curvature="0"
       style="fill:#000000;fill-opacity:0;fill-rule:evenodd;opacity:0.2" />
    <path
       d="m 323.71152,156.50243 v 0 c -7.19891,0 -14.103,3.74004 -19.19339,10.39734 -5.09042,6.6573 -7.95017,15.68654 -7.95017,25.10139"
       id="path77"
       inkscape:connector-curvature="0"
       style="fill-rule:evenodd;stroke:#847791;stroke-width:3;stroke-linecap:butt;stroke-linejoin:round;opacity:0.2" />
    <path
       d="m 323.71152,156.50243 v 0 c 7.19891,0 14.103,3.74004 19.19339,10.39734 5.09039,6.6573 7.95017,15.68654 7.95017,25.10139 h -27.14356 z"
       id="path79"
       inkscape:connector-curvature="0"
       style="fill:#000000;fill-opacity:0;fill-rule:evenodd;opacity:0.2" />
    <path
       d="m 323.71152,156.50243 v 0 c 7.19891,0 14.103,3.74004 19.19339,10.39734 5.09039,6.6573 7.95017,15.68654 7.95017,25.10139"
       id="path81"
       inkscape:connector-curvature="0"
       style="fill:#000000;fill-opacity:0;fill-rule:evenodd;opacity:0.2" />
    <path
       d="m 323.71152,156.50243 v 0 c 7.19891,0 14.103,3.74004 19.19339,10.39734 5.09039,6.6573 7.95017,15.68654 7.95017,25.10139"
       id="path83"
       inkscape:connector-curvature="0"
       style="fill-rule:evenodd;stroke:#847791;stroke-width:3;stroke-linecap:butt;stroke-linejoin:round;opacity:0.2" />
    <path
       d="m 377.99863,227.4999 v 0 c -7.19891,0 -14.103,-3.74004 -19.19339,-10.39734 -5.09039,-6.6573 -7.95017,-15.68655 -7.95017,-25.10139 h 27.14356 z"
       id="path85"
       inkscape:connector-curvature="0"
       style="fill:#000000;fill-opacity:0;fill-rule:evenodd;opacity:0.2" />
    <path
       d="m 377.99863,227.4999 v 0 c -7.19891,0 -14.103,-3.74004 -19.19339,-10.39734 -5.09039,-6.6573 -7.95017,-15.68655 -7.95017,-25.10139"
       id="path87"
       inkscape:connector-curvature="0"
       style="fill:#000000;fill-opacity:0;fill-rule:evenodd;opacity:0.2" />
    <path
       d="m 377.99863,227.4999 v 0 c -7.19891,0 -14.103,-3.74004 -19.19339,-10.39734 -5.09039,-6.6573 -7.95017,-15.68655 -7.95017,-25.10139"
       id="path89"
       inkscape:connector-curvature="0"
       style="fill-rule:evenodd;stroke:#847791;stroke-width:3;stroke-linecap:butt;stroke-linejoin:round;opacity:0.2" />
    <path
       d="m 377.99863,227.4999 v 0 c 7.19891,0 14.103,-3.74004 19.19339,-10.39734 5.09042,-6.6573 7.95017,-15.68655 7.95017,-25.10139 h -27.14356 z"
       id="path91"
       inkscape:connector-curvature="0"
       style="fill:#000000;fill-opacity:0;fill-rule:evenodd;opacity:0.2" />
    <path
       d="m 377.99863,227.4999 v 0 c 7.19891,0 14.103,-3.74004 19.19339,-10.39734 5.09042,-6.6573 7.95017,-15.68655 7.95017,-25.10139"
       id="path93"
       inkscape:connector-curvature="0"
       style="fill:#000000;fill-opacity:0;fill-rule:evenodd;opacity:0.2" />
    <path
       d="m 377.99863,227.4999 v 0 c 7.19891,0 14.103,-3.74004 19.19339,-10.39734 5.09042,-6.6573 7.95017,-15.68655 7.95017,-25.10139"
       id="path95"
       inkscape:connector-curvature="0"
       style="fill-rule:evenodd;stroke:#847791;stroke-width:3;stroke-linecap:butt;stroke-linejoin:round;opacity:0.2" />
    <path
       d="m 432.28574,156.50243 v 0 c -7.19891,0 -14.10297,3.74004 -19.19339,10.39734 -5.09039,6.6573 -7.95017,15.68654 -7.95017,25.10139 h 27.14356 z"
       id="path97"
       inkscape:connector-curvature="0"
       style="fill:#000000;fill-opacity:0;fill-rule:evenodd;opacity:0.2" />
    <path
       d="m 432.28574,156.50243 v 0 c -7.19891,0 -14.10297,3.74004 -19.19339,10.39734 -5.09039,6.6573 -7.95017,15.68654 -7.95017,25.10139"
       id="path99"
       inkscape:connector-curvature="0"
       style="fill:#000000;fill-opacity:0;fill-rule:evenodd;opacity:0.2" />
    <path
       d="m 432.28574,156.50243 v 0 c -7.19891,0 -14.10297,3.74004 -19.19339,10.39734 -5.09039,6.6573 -7.95017,15.68654 -7.95017,25.10139"
       id="path101"
       inkscape:connector-curvature="0"
       style="fill-rule:evenodd;stroke:#847791;stroke-width:3;stroke-linecap:butt;stroke-linejoin:round;opacity:0.2" />
    <path
       d="m 432.28574,156.50243 v 0 c 7.19894,0 14.103,3.74004 19.19342,10.39734 5.09039,6.6573 7.95016,15.68654 7.95016,25.10139 h -27.14358 z"
       id="path103"
       inkscape:connector-curvature="0"
       style="fill:#000000;fill-opacity:0;fill-rule:evenodd;opacity:0.2" />
    <path
       d="m 432.28574,156.50243 v 0 c 7.19894,0 14.103,3.74004 19.19342,10.39734 5.09039,6.6573 7.95016,15.68654 7.95016,25.10139"
       id="path105"
       inkscape:connector-curvature="0"
       style="fill:#000000;fill-opacity:0;fill-rule:evenodd;opacity:0.2" />
    <path
       d="m 432.28574,156.50243 v 0 c 7.19894,0 14.103,3.74004 19.19342,10.39734 5.09039,6.6573 7.95016,15.68654 7.95016,25.10139"
       id="path107"
       inkscape:connector-curvature="0"
       style="fill-rule:evenodd;stroke:#847791;stroke-width:3;stroke-linecap:butt;stroke-linejoin:round;opacity:0.2" />
    <path
       d="m 486.57288,227.4999 v 0 c -7.19894,0 -14.103,-3.74004 -19.19339,-10.39734 -5.09042,-6.6573 -7.95017,-15.68655 -7.95017,-25.10139 h 27.14356 z"
       id="path109"
       inkscape:connector-curvature="0"
       style="fill:#000000;fill-opacity:0;fill-rule:evenodd;opacity:0.2" />
    <path
       d="m 486.57288,227.4999 v 0 c -7.19894,0 -14.103,-3.74004 -19.19339,-10.39734 -5.09042,-6.6573 -7.95017,-15.68655 -7.95017,-25.10139"
       id="path111"
       inkscape:connector-curvature="0"
       style="fill:#000000;fill-opacity:0;fill-rule:evenodd;opacity:0.2" />
    <path
       d="m 486.57288,227.4999 v 0 c -7.19894,0 -14.103,-3.74004 -19.19339,-10.39734 -5.09042,-6.6573 -7.95017,-15.68655 -7.95017,-25.10139"
       id="path113"
       inkscape:connector-curvature="0"
       style="fill-rule:evenodd;stroke:#847791;stroke-width:3;stroke-linecap:butt;stroke-linejoin:round;opacity:0.2" />
    <path
       d="m 485.72098,227.4999 v 0 c 7.19891,0 14.103,-3.74004 19.19339,-10.39734 5.09042,-6.6573 7.9502,-15.68655 7.9502,-25.10139 h -27.14359 z"
       id="path115"
       inkscape:connector-curvature="0"
       style="fill:#000000;fill-opacity:0;fill-rule:evenodd;opacity:0.2" />
    <path
       d="m 485.72098,227.4999 v 0 c 7.19891,0 14.103,-3.74004 19.19339,-10.39734 5.09042,-6.6573 7.9502,-15.68655 7.9502,-25.10139"
       id="path117"
       inkscape:connector-curvature="0"
       style="fill:#000000;fill-opacity:0;fill-rule:evenodd;opacity:0.2" />
    <path
       d="m 485.72098,227.4999 v 0 c 7.19891,0 14.103,-3.74004 19.19339,-10.39734 5.09042,-6.6573 7.9502,-15.68655 7.9502,-25.10139"
       id="path119"
       inkscape:connector-curvature="0"
       style="fill-rule:evenodd;stroke:#847791;stroke-width:3;stroke-linecap:butt;stroke-linejoin:round;opacity:0.2" />
    <path
       d="m 540.0081,156.50243 v 0 c -7.19891,0 -14.10303,3.74004 -19.19342,10.39734 -5.09039,6.6573 -7.95013,15.68654 -7.95013,25.10139 h 27.14355 z"
       id="path121"
       inkscape:connector-curvature="0"
       style="fill:#000000;fill-opacity:0;fill-rule:evenodd;opacity:0.2" />
    <path
       d="m 540.0081,156.50243 v 0 c -7.19891,0 -14.10303,3.74004 -19.19342,10.39734 -5.09039,6.6573 -7.95013,15.68654 -7.95013,25.10139"
       id="path123"
       inkscape:connector-curvature="0"
       style="fill:#000000;fill-opacity:0;fill-rule:evenodd;opacity:0.2" />
    <path
       d="m 540.0081,156.50243 v 0 c -7.19891,0 -14.10303,3.74004 -19.19342,10.39734 -5.09039,6.6573 -7.95013,15.68654 -7.95013,25.10139"
       id="path125"
       inkscape:connector-curvature="0"
       style="fill-rule:evenodd;stroke:#847791;stroke-width:3;stroke-linecap:butt;stroke-linejoin:round;opacity:0.2" />
    <path
       d="m 540.0081,156.50243 v 0 c 7.19891,0 14.10297,3.74004 19.19336,10.39734 5.09039,6.6573 7.9502,15.68654 7.9502,25.10139 H 540.0081 Z"
       id="path127"
       inkscape:connector-curvature="0"
       style="fill:#000000;fill-opacity:0;fill-rule:evenodd;opacity:0.2" />
    <path
       d="m 540.0081,156.50243 v 0 c 7.19891,0 14.10297,3.74004 19.19336,10.39734 5.09039,6.6573 7.9502,15.68654 7.9502,25.10139"
       id="path129"
       inkscape:connector-curvature="0"
       style="fill:#000000;fill-opacity:0;fill-rule:evenodd;opacity:0.2" />
    <path
       d="m 540.0081,156.50243 v 0 c 7.19891,0 14.10297,3.74004 19.19336,10.39734 5.09039,6.6573 7.9502,15.68654 7.9502,25.10139"
       id="path131"
       inkscape:connector-curvature="0"
       style="fill-rule:evenodd;stroke:#847791;stroke-width:3;stroke-linecap:butt;stroke-linejoin:round;opacity:0.2" />
    <path
       d="m 594.2952,227.4999 v 0 c -7.19891,0 -14.10303,-3.74004 -19.19342,-10.39734 -5.09039,-6.6573 -7.95013,-15.68655 -7.95013,-25.10139 h 27.14355 z"
       id="path133"
       inkscape:connector-curvature="0"
       style="fill:#000000;fill-opacity:0;fill-rule:evenodd;opacity:0.2" />
    <path
       d="m 594.2952,227.4999 v 0 c -7.19891,0 -14.10303,-3.74004 -19.19342,-10.39734 -5.09039,-6.6573 -7.95013,-15.68655 -7.95013,-25.10139"
       id="path135"
       inkscape:connector-curvature="0"
       style="fill:#000000;fill-opacity:0;fill-rule:evenodd;opacity:0.2" />
    <path
       d="m 594.2952,227.4999 v 0 c -7.19891,0 -14.10303,-3.74004 -19.19342,-10.39734 -5.09039,-6.6573 -7.95013,-15.68655 -7.95013,-25.10139"
       id="path137"
       inkscape:connector-curvature="0"
       style="fill-rule:evenodd;stroke:#847791;stroke-width:3;stroke-linecap:butt;stroke-linejoin:round;opacity:0.2" />
    <path
       d="m 594.2952,227.4999 v 0 c 7.19891,0 14.10297,-3.74004 19.19336,-10.39734 5.09045,-6.6573 7.9502,-15.68655 7.9502,-25.10139 H 594.2952 Z"
       id="path139"
       inkscape:connector-curvature="0"
       style="fill:#000000;fill-opacity:0;fill-rule:evenodd;opacity:0.2" />
    <path
       d="m 594.2952,227.4999 v 0 c 7.19891,0 14.10297,-3.74004 19.19336,-10.39734 5.09045,-6.6573 7.9502,-15.68655 7.9502,-25.10139"
       id="path141"
       inkscape:connector-curvature="0"
       style="fill:#000000;fill-opacity:0;fill-rule:evenodd;opacity:0.2" />
    <path
       d="m 594.2952,227.4999 v 0 c 7.19891,0 14.10297,-3.74004 19.19336,-10.39734 5.09045,-6.6573 7.9502,-15.68655 7.9502,-25.10139"
       id="path143"
       inkscape:connector-curvature="0"
       style="fill-rule:evenodd;stroke:#847791;stroke-width:3;stroke-linecap:butt;stroke-linejoin:round;opacity:0.2" />
    <path
       d="m 648.58234,156.50243 v 0 c -7.19891,0 -14.10297,3.74004 -19.19342,10.39734 -5.09039,6.6573 -7.95013,15.68654 -7.95013,25.10139 h 27.14355 z"
       id="path145"
       inkscape:connector-curvature="0"
       style="fill:#000000;fill-opacity:0;fill-rule:evenodd;opacity:0.2" />
    <path
       d="m 648.58234,156.50243 v 0 c -7.19891,0 -14.10297,3.74004 -19.19342,10.39734 -5.09039,6.6573 -7.95013,15.68654 -7.95013,25.10139"
       id="path147"
       inkscape:connector-curvature="0"
       style="fill:#000000;fill-opacity:0;fill-rule:evenodd;opacity:0.2" />
    <path
       d="m 648.58234,156.50243 v 0 c -7.19891,0 -14.10297,3.74004 -19.19342,10.39734 -5.09039,6.6573 -7.95013,15.68654 -7.95013,25.10139"
       id="path149"
       inkscape:connector-curvature="0"
       style="fill-rule:evenodd;stroke:#847791;stroke-width:3;stroke-linecap:butt;stroke-linejoin:round;opacity:0.2" />
    <path
       d="m 648.58234,156.50243 v 0 c 7.19891,0 14.10297,3.74004 19.19342,10.39734 5.09039,6.6573 7.95013,15.68654 7.95013,25.10139 h -27.14355 z"
       id="path151"
       inkscape:connector-curvature="0"
       style="fill:#000000;fill-opacity:0;fill-rule:evenodd;opacity:0.2" />
    <path
       d="m 648.58234,156.50243 v 0 c 7.19891,0 14.10297,3.74004 19.19342,10.39734 5.09039,6.6573 7.95013,15.68654 7.95013,25.10139"
       id="path153"
       inkscape:connector-curvature="0"
       style="fill:#000000;fill-opacity:0;fill-rule:evenodd;opacity:0.2" />
    <path
       d="m 648.58234,156.50243 v 0 c 7.19891,0 14.10297,3.74004 19.19342,10.39734 5.09039,6.6573 7.95013,15.68654 7.95013,25.10139"
       id="path155"
       inkscape:connector-curvature="0"
       style="fill-rule:evenodd;stroke:#847791;stroke-width:3;stroke-linecap:butt;stroke-linejoin:round;opacity:0.2" />
    <path
       d="m 702.86945,227.4999 v 0 c -7.19891,0 -14.10297,-3.74004 -19.19336,-10.39734 -5.09045,-6.6573 -7.9502,-15.68655 -7.9502,-25.10139 h 27.14356 z"
       id="path157"
       inkscape:connector-curvature="0"
       style="fill:#000000;fill-opacity:0;fill-rule:evenodd;opacity:0.2" />
    <path
       d="m 702.86945,227.4999 v 0 c -7.19891,0 -14.10297,-3.74004 -19.19336,-10.39734 -5.09045,-6.6573 -7.9502,-15.68655 -7.9502,-25.10139"
       id="path159"
       inkscape:connector-curvature="0"
       style="fill:#000000;fill-opacity:0;fill-rule:evenodd;opacity:0.2" />
    <path
       d="m 702.86945,227.4999 v 0 c -7.19891,0 -14.10297,-3.74004 -19.19336,-10.39734 -5.09045,-6.6573 -7.9502,-15.68655 -7.9502,-25.10139"
       id="path161"
       inkscape:connector-curvature="0"
       style="fill-rule:evenodd;stroke:#847791;stroke-width:3;stroke-linecap:butt;stroke-linejoin:round;opacity:0.2" />
    <path
       d="m 702.01495,227.4999 v 0 c 7.19891,0 14.10297,-3.74004 19.19336,-10.39734 5.09045,-6.6573 7.9502,-15.68655 7.9502,-25.10139 h -27.14356 z"
       id="path163"
       inkscape:connector-curvature="0"
       style="fill:#000000;fill-opacity:0;fill-rule:evenodd;opacity:0.2" />
    <path
       d="m 702.01495,227.4999 v 0 c 7.19891,0 14.10297,-3.74004 19.19336,-10.39734 5.09045,-6.6573 7.9502,-15.68655 7.9502,-25.10139"
       id="path165"
       inkscape:connector-curvature="0"
       style="fill:#000000;fill-opacity:0;fill-rule:evenodd;opacity:0.2" />
    <path
       d="m 702.01495,227.4999 v 0 c 7.19891,0 14.10297,-3.74004 19.19336,-10.39734 5.09045,-6.6573 7.9502,-15.68655 7.9502,-25.10139"
       id="path167"
       inkscape:connector-curvature="0"
       style="fill-rule:evenodd;stroke:#847791;stroke-width:3;stroke-linecap:butt;stroke-linejoin:round;opacity:0.2" />
    <path
       d="m 756.30206,156.50243 v 0 c -7.19891,0 -14.10297,3.74004 -19.19342,10.39734 -5.09039,6.6573 -7.95013,15.68654 -7.95013,25.10139 h 27.14355 z"
       id="path169"
       inkscape:connector-curvature="0"
       style="fill:#000000;fill-opacity:0;fill-rule:evenodd;opacity:0.2" />
    <path
       d="m 756.30206,156.50243 v 0 c -7.19891,0 -14.10297,3.74004 -19.19342,10.39734 -5.09039,6.6573 -7.95013,15.68654 -7.95013,25.10139"
       id="path171"
       inkscape:connector-curvature="0"
       style="fill:#000000;fill-opacity:0;fill-rule:evenodd;opacity:0.2" />
    <path
       d="m 756.30206,156.50243 v 0 c -7.19891,0 -14.10297,3.74004 -19.19342,10.39734 -5.09039,6.6573 -7.95013,15.68654 -7.95013,25.10139"
       id="path173"
       inkscape:connector-curvature="0"
       style="fill-rule:evenodd;stroke:#847791;stroke-width:3;stroke-linecap:butt;stroke-linejoin:round;opacity:0.2" />
    <path
       d="m 756.30206,156.50243 v 0 c 7.19891,0 14.10297,3.74004 19.19342,10.39734 5.09039,6.6573 7.95013,15.68654 7.95013,25.10139 h -27.14355 z"
       id="path175"
       inkscape:connector-curvature="0"
       style="fill:#000000;fill-opacity:0;fill-rule:evenodd;opacity:0.2" />
    <path
       d="m 756.30206,156.50243 v 0 c 7.19891,0 14.10297,3.74004 19.19342,10.39734 5.09039,6.6573 7.95013,15.68654 7.95013,25.10139"
       id="path177"
       inkscape:connector-curvature="0"
       style="fill:#000000;fill-opacity:0;fill-rule:evenodd;opacity:0.2" />
    <path
       d="m 756.30206,156.50243 v 0 c 7.19891,0 14.10297,3.74004 19.19342,10.39734 5.09039,6.6573 7.95013,15.68654 7.95013,25.10139"
       id="path179"
       inkscape:connector-curvature="0"
       style="fill-rule:evenodd;stroke:#847791;stroke-width:3;stroke-linecap:butt;stroke-linejoin:round;opacity:0.2" />
    <path
       d="m 810.5892,227.4999 v 0 c -7.19891,0 -14.10297,-3.74004 -19.19336,-10.39734 -5.09045,-6.6573 -7.9502,-15.68655 -7.9502,-25.10139 h 27.14356 z"
       id="path181"
       inkscape:connector-curvature="0"
       style="fill:#000000;fill-opacity:0;fill-rule:evenodd;opacity:0.2" />
    <path
       d="m 810.5892,227.4999 v 0 c -7.19891,0 -14.10297,-3.74004 -19.19336,-10.39734 -5.09045,-6.6573 -7.9502,-15.68655 -7.9502,-25.10139"
       id="path183"
       inkscape:connector-curvature="0"
       style="fill:#000000;fill-opacity:0;fill-rule:evenodd;opacity:0.2" />
    <path
       d="m 810.5892,227.4999 v 0 c -7.19891,0 -14.10297,-3.74004 -19.19336,-10.39734 -5.09045,-6.6573 -7.9502,-15.68655 -7.9502,-25.10139"
       id="path185"
       inkscape:connector-curvature="0"
       style="fill-rule:evenodd;stroke:#847791;stroke-width:3;stroke-linecap:butt;stroke-linejoin:round;opacity:0.2" />
    <path
       d="m 810.5892,227.4999 v 0 c 7.19891,0 14.10303,-3.74004 19.19342,-10.39734 5.09039,-6.6573 7.95013,-15.68655 7.95013,-25.10139 H 810.5892 Z"
       id="path187"
       inkscape:connector-curvature="0"
       style="fill:#000000;fill-opacity:0;fill-rule:evenodd;opacity:0.2" />
    <path
       d="m 810.5892,227.4999 v 0 c 7.19891,0 14.10303,-3.74004 19.19342,-10.39734 5.09039,-6.6573 7.95013,-15.68655 7.95013,-25.10139"
       id="path189"
       inkscape:connector-curvature="0"
       style="fill:#000000;fill-opacity:0;fill-rule:evenodd;opacity:0.2" />
    <path
       d="m 810.5892,227.4999 v 0 c 7.19891,0 14.10303,-3.74004 19.19342,-10.39734 5.09039,-6.6573 7.95013,-15.68655 7.95013,-25.10139"
       id="path191"
       inkscape:connector-curvature="0"
       style="fill-rule:evenodd;stroke:#847791;stroke-width:3;stroke-linecap:butt;stroke-linejoin:round;opacity:0.2" />
    <path
       d="m 864.8763,156.50243 v 0 c -7.19891,0 -14.10297,3.74004 -19.19336,10.39734 -5.09039,6.6573 -7.9502,15.68654 -7.9502,25.10139 h 27.14356 z"
       id="path193"
       inkscape:connector-curvature="0"
       style="fill:#000000;fill-opacity:0;fill-rule:evenodd;opacity:0.2" />
    <path
       d="m 864.8763,156.50243 v 0 c -7.19891,0 -14.10297,3.74004 -19.19336,10.39734 -5.09039,6.6573 -7.9502,15.68654 -7.9502,25.10139"
       id="path195"
       inkscape:connector-curvature="0"
       style="fill:#000000;fill-opacity:0;fill-rule:evenodd;opacity:0.2" />
    <path
       d="m 864.8763,156.50243 v 0 c -7.19891,0 -14.10297,3.74004 -19.19336,10.39734 -5.09039,6.6573 -7.9502,15.68654 -7.9502,25.10139"
       id="path197"
       inkscape:connector-curvature="0"
       style="fill-rule:evenodd;stroke:#847791;stroke-width:3;stroke-linecap:butt;stroke-linejoin:round;opacity:0.2" />
    <path
       d="m 864.8763,156.50243 v 0 c 7.19891,0 14.10303,3.74004 19.19342,10.39734 5.09039,6.6573 7.95013,15.68654 7.95013,25.10139 H 864.8763 Z"
       id="path199"
       inkscape:connector-curvature="0"
       style="fill:#000000;fill-opacity:0;fill-rule:evenodd;opacity:0.2" />
    <path
       d="m 864.8763,156.50243 v 0 c 7.19891,0 14.10303,3.74004 19.19342,10.39734 5.09039,6.6573 7.95013,15.68654 7.95013,25.10139"
       id="path201"
       inkscape:connector-curvature="0"
       style="fill:#000000;fill-opacity:0;fill-rule:evenodd;opacity:0.2" />
    <path
       d="m 864.8763,156.50243 v 0 c 7.19891,0 14.10303,3.74004 19.19342,10.39734 5.09039,6.6573 7.95013,15.68654 7.95013,25.10139"
       id="path203"
       inkscape:connector-curvature="0"
       style="fill-rule:evenodd;stroke:#847791;stroke-width:3;stroke-linecap:butt;stroke-linejoin:round;opacity:0.2" />
    <path
       d="m 919.1634,227.4999 v 0 c -7.19891,0 -14.10297,-3.74004 -19.19336,-10.39734 -5.09039,-6.6573 -7.9502,-15.68655 -7.9502,-25.10139 h 27.14356 z"
       id="path205"
       inkscape:connector-curvature="0"
       style="fill:#000000;fill-opacity:0;fill-rule:evenodd;opacity:0.2" />
    <path
       d="m 919.1634,227.4999 v 0 c -7.19891,0 -14.10297,-3.74004 -19.19336,-10.39734 -5.09039,-6.6573 -7.9502,-15.68655 -7.9502,-25.10139"
       id="path207"
       inkscape:connector-curvature="0"
       style="fill:#000000;fill-opacity:0;fill-rule:evenodd;opacity:0.2" />
    <path
       d="m 919.1634,227.4999 v 0 c -7.19891,0 -14.10297,-3.74004 -19.19336,-10.39734 -5.09039,-6.6573 -7.9502,-15.68655 -7.9502,-25.10139"
       id="path209"
       inkscape:connector-curvature="0"
       style="fill-rule:evenodd;stroke:#847791;stroke-width:3;stroke-linecap:butt;stroke-linejoin:round;opacity:0.2" />
    <path
       d="m 918.31415,227.4999 v 0 c 7.19891,0 14.10303,-3.74004 19.19342,-10.39734 5.09039,-6.6573 7.95013,-15.68655 7.95013,-25.10139 h -27.14355 z"
       id="path211"
       inkscape:connector-curvature="0"
       style="fill:#000000;fill-opacity:0;fill-rule:evenodd;opacity:0.2" />
    <path
       d="m 918.31415,227.4999 v 0 c 7.19891,0 14.10303,-3.74004 19.19342,-10.39734 5.09039,-6.6573 7.95013,-15.68655 7.95013,-25.10139"
       id="path213"
       inkscape:connector-curvature="0"
       style="fill:#000000;fill-opacity:0;fill-rule:evenodd;opacity:0.2" />
    <path
       d="m 918.31415,227.4999 v 0 c 7.19891,0 14.10303,-3.74004 19.19342,-10.39734 5.09039,-6.6573 7.95013,-15.68655 7.95013,-25.10139"
       id="path215"
       inkscape:connector-curvature="0"
       style="fill-rule:evenodd;stroke:#847791;stroke-width:3;stroke-linecap:butt;stroke-linejoin:round;opacity:0.2" />
    <path
       d="m 972.60126,156.50243 v 0 c -7.19891,0 -14.10297,3.74004 -19.19336,10.39734 -5.09039,6.6573 -7.9502,15.68654 -7.9502,25.10139 h 27.14356 z"
       id="path217"
       inkscape:connector-curvature="0"
       style="fill:#000000;fill-opacity:0;fill-rule:evenodd;opacity:0.2" />
    <path
       d="m 972.60126,156.50243 v 0 c -7.19891,0 -14.10297,3.74004 -19.19336,10.39734 -5.09039,6.6573 -7.9502,15.68654 -7.9502,25.10139"
       id="path219"
       inkscape:connector-curvature="0"
       style="fill:#000000;fill-opacity:0;fill-rule:evenodd;opacity:0.2" />
    <path
       d="m 972.60126,156.50243 v 0 c -7.19891,0 -14.10297,3.74004 -19.19336,10.39734 -5.09039,6.6573 -7.9502,15.68654 -7.9502,25.10139"
       id="path221"
       inkscape:connector-curvature="0"
       style="fill-rule:evenodd;stroke:#847791;stroke-width:3;stroke-linecap:butt;stroke-linejoin:round;opacity:0.2" />
    <path
       d="m 972.60126,156.50243 v 0 c 7.19891,0 14.10303,3.74004 19.19342,10.39734 5.09039,6.6573 7.95013,15.68654 7.95013,25.10139 h -27.14355 z"
       id="path223"
       inkscape:connector-curvature="0"
       style="fill:#000000;fill-opacity:0;fill-rule:evenodd;opacity:0.2" />
    <path
       d="m 972.60126,156.50243 v 0 c 7.19891,0 14.10303,3.74004 19.19342,10.39734 5.09039,6.6573 7.95013,15.68654 7.95013,25.10139"
       id="path225"
       inkscape:connector-curvature="0"
       style="fill:#000000;fill-opacity:0;fill-rule:evenodd;opacity:0.2" />
    <path
       d="m 972.60126,156.50243 v 0 c 7.19891,0 14.10303,3.74004 19.19342,10.39734 5.09039,6.6573 7.95013,15.68654 7.95013,25.10139"
       id="path227"
       inkscape:connector-curvature="0"
       style="fill-rule:evenodd;stroke:#847791;stroke-width:3;stroke-linecap:butt;stroke-linejoin:round;opacity:0.2" />
    <path
       d="m 1026.8884,227.4999 v 0 c -7.199,0 -14.103,-3.74004 -19.1934,-10.39734 -5.0904,-6.6573 -7.95022,-15.68655 -7.95022,-25.10139 h 27.14362 z"
       id="path229"
       inkscape:connector-curvature="0"
       style="fill:#000000;fill-opacity:0;fill-rule:evenodd;opacity:0.2" />
    <path
       d="m 1026.8884,227.4999 v 0 c -7.199,0 -14.103,-3.74004 -19.1934,-10.39734 -5.0904,-6.6573 -7.95022,-15.68655 -7.95022,-25.10139"
       id="path231"
       inkscape:connector-curvature="0"
       style="fill:#000000;fill-opacity:0;fill-rule:evenodd;opacity:0.2" />
    <path
       d="m 1026.8884,227.4999 v 0 c -7.199,0 -14.103,-3.74004 -19.1934,-10.39734 -5.0904,-6.6573 -7.95022,-15.68655 -7.95022,-25.10139"
       id="path233"
       inkscape:connector-curvature="0"
       style="fill-rule:evenodd;stroke:#847791;stroke-width:3;stroke-linecap:butt;stroke-linejoin:round;opacity:0.2" />
    <path
       d="m 1026.8884,227.4999 v 0 c 7.1989,0 14.1029,-3.74004 19.1934,-10.39734 5.0904,-6.6573 7.9502,-15.68655 7.9502,-25.10139 h -27.1436 z"
       id="path235"
       inkscape:connector-curvature="0"
       style="fill:#000000;fill-opacity:0;fill-rule:evenodd;opacity:0.2" />
    <path
       d="m 1026.8884,227.4999 v 0 c 7.1989,0 14.1029,-3.74004 19.1934,-10.39734 5.0904,-6.6573 7.9502,-15.68655 7.9502,-25.10139"
       id="path237"
       inkscape:connector-curvature="0"
       style="fill:#000000;fill-opacity:0;fill-rule:evenodd;opacity:0.2" />
    <path
       d="m 1026.8884,227.4999 v 0 c 7.1989,0 14.1029,-3.74004 19.1934,-10.39734 5.0904,-6.6573 7.9502,-15.68655 7.9502,-25.10139"
       id="path239"
       inkscape:connector-curvature="0"
       style="fill-rule:evenodd;stroke:#847791;stroke-width:3;stroke-linecap:butt;stroke-linejoin:round;opacity:0.2" />
    <path
       d="m 1081.1755,156.50243 v 0 c -7.199,0 -14.103,3.74004 -19.1934,10.39734 -5.0904,6.6573 -7.9502,15.68654 -7.9502,25.10139 h 27.1436 z"
       id="path241"
       inkscape:connector-curvature="0"
       style="fill:#000000;fill-opacity:0;fill-rule:evenodd;opacity:0.2" />
    <path
       d="m 1081.1755,156.50243 v 0 c -7.199,0 -14.103,3.74004 -19.1934,10.39734 -5.0904,6.6573 -7.9502,15.68654 -7.9502,25.10139"
       id="path243"
       inkscape:connector-curvature="0"
       style="fill:#000000;fill-opacity:0;fill-rule:evenodd;opacity:0.2" />
    <path
       d="m 1081.1755,156.50243 v 0 c -7.199,0 -14.103,3.74004 -19.1934,10.39734 -5.0904,6.6573 -7.9502,15.68654 -7.9502,25.10139"
       id="path245"
       inkscape:connector-curvature="0"
       style="fill-rule:evenodd;stroke:#847791;stroke-width:3;stroke-linecap:butt;stroke-linejoin:round;opacity:0.2" />
    <path
       d="m 1081.1755,156.50243 v 0 c 7.1989,0 14.1029,3.74004 19.1934,10.39734 5.0904,6.6573 7.9502,15.68654 7.9502,25.10139 h -27.1436 z"
       id="path247"
       inkscape:connector-curvature="0"
       style="fill:#000000;fill-opacity:0;fill-rule:evenodd;opacity:0.2" />
    <path
       d="m 1081.1755,156.50243 v 0 c 7.1989,0 14.1029,3.74004 19.1934,10.39734 5.0904,6.6573 7.9502,15.68654 7.9502,25.10139"
       id="path249"
       inkscape:connector-curvature="0"
       style="fill:#000000;fill-opacity:0;fill-rule:evenodd;opacity:0.2" />
    <path
       d="m 1081.1755,156.50243 v 0 c 7.1989,0 14.1029,3.74004 19.1934,10.39734 5.0904,6.6573 7.9502,15.68654 7.9502,25.10139"
       id="path251"
       inkscape:connector-curvature="0"
       style="fill-rule:evenodd;stroke:#847791;stroke-width:3;stroke-linecap:butt;stroke-linejoin:round;opacity:0.2" />
    <path
       d="m 1135.4626,227.4999 v 0 c -7.199,0 -14.103,-3.74004 -19.1934,-10.39734 -5.0904,-6.6573 -7.9502,-15.68655 -7.9502,-25.10139 h 27.1436 z"
       id="path253"
       inkscape:connector-curvature="0"
       style="fill:#000000;fill-opacity:0;fill-rule:evenodd;opacity:0.2" />
    <path
       d="m 1135.4626,227.4999 v 0 c -7.199,0 -14.103,-3.74004 -19.1934,-10.39734 -5.0904,-6.6573 -7.9502,-15.68655 -7.9502,-25.10139"
       id="path255"
       inkscape:connector-curvature="0"
       style="fill:#000000;fill-opacity:0;fill-rule:evenodd;opacity:0.2" />
    <path
       d="m 1135.4626,227.4999 v 0 c -7.199,0 -14.103,-3.74004 -19.1934,-10.39734 -5.0904,-6.6573 -7.9502,-15.68655 -7.9502,-25.10139"
       id="path257"
       inkscape:connector-curvature="0"
       style="fill-rule:evenodd;stroke:#847791;stroke-width:3;stroke-linecap:butt;stroke-linejoin:round;opacity:0.2" />
    <path
       d="m 1134.6055,227.4999 v 0 c 7.199,0 14.103,-3.74004 19.1935,-10.39734 5.0903,-6.6573 7.9501,-15.68655 7.9501,-25.10139 h -27.1436 z"
       id="path259"
       inkscape:connector-curvature="0"
       style="fill:#000000;fill-opacity:0;fill-rule:evenodd;opacity:0.2" />
    <path
       d="m 1134.6055,227.4999 v 0 c 7.199,0 14.103,-3.74004 19.1935,-10.39734 5.0903,-6.6573 7.9501,-15.68655 7.9501,-25.10139"
       id="path261"
       inkscape:connector-curvature="0"
       style="fill:#000000;fill-opacity:0;fill-rule:evenodd;opacity:0.2" />
    <path
       d="m 1134.6055,227.4999 v 0 c 7.199,0 14.103,-3.74004 19.1935,-10.39734 5.0903,-6.6573 7.9501,-15.68655 7.9501,-25.10139"
       id="path263"
       inkscape:connector-curvature="0"
       style="fill-rule:evenodd;stroke:#847791;stroke-width:3;stroke-linecap:butt;stroke-linejoin:round;opacity:0.2" />
    <path
       d="m 1188.8926,156.50243 v 0 c -7.1989,0 -14.1029,3.74004 -19.1934,10.39734 -5.0904,6.6573 -7.9502,15.68654 -7.9502,25.10139 h 27.1436 z"
       id="path265"
       inkscape:connector-curvature="0"
       style="fill:#000000;fill-opacity:0;fill-rule:evenodd;opacity:0.2" />
    <path
       d="m 1188.8926,156.50243 v 0 c -7.1989,0 -14.1029,3.74004 -19.1934,10.39734 -5.0904,6.6573 -7.9502,15.68654 -7.9502,25.10139"
       id="path267"
       inkscape:connector-curvature="0"
       style="fill:#000000;fill-opacity:0;fill-rule:evenodd;opacity:0.2" />
    <path
       d="m 1188.8926,156.50243 v 0 c -7.1989,0 -14.1029,3.74004 -19.1934,10.39734 -5.0904,6.6573 -7.9502,15.68654 -7.9502,25.10139"
       id="path269"
       inkscape:connector-curvature="0"
       style="fill-rule:evenodd;stroke:#847791;stroke-width:3;stroke-linecap:butt;stroke-linejoin:round;opacity:0.2" />
    <path
       d="m 1188.8926,156.50243 v 0 c 7.199,0 14.103,3.74004 19.1935,10.39734 5.0903,6.6573 7.9501,15.68654 7.9501,25.10139 h -27.1436 z"
       id="path271"
       inkscape:connector-curvature="0"
       style="fill:#000000;fill-opacity:0;fill-rule:evenodd;opacity:0.2" />
    <path
       d="m 1188.8926,156.50243 v 0 c 7.199,0 14.103,3.74004 19.1935,10.39734 5.0903,6.6573 7.9501,15.68654 7.9501,25.10139"
       id="path273"
       inkscape:connector-curvature="0"
       style="fill:#000000;fill-opacity:0;fill-rule:evenodd;opacity:0.2" />
    <path
       d="m 1188.8926,156.50243 v 0 c 7.199,0 14.103,3.74004 19.1935,10.39734 5.0903,6.6573 7.9501,15.68654 7.9501,25.10139"
       id="path275"
       inkscape:connector-curvature="0"
       style="fill-rule:evenodd;stroke:#847791;stroke-width:3;stroke-linecap:butt;stroke-linejoin:round;opacity:0.2" />
    <path
       d="m 1243.1797,227.4999 v 0 c -7.1989,0 -14.1029,-3.74004 -19.1934,-10.39734 -5.0904,-6.6573 -7.9502,-15.68655 -7.9502,-25.10139 h 27.1436 z"
       id="path277"
       inkscape:connector-curvature="0"
       style="fill:#000000;fill-opacity:0;fill-rule:evenodd;opacity:0.2" />
    <path
       d="m 1243.1797,227.4999 v 0 c -7.1989,0 -14.1029,-3.74004 -19.1934,-10.39734 -5.0904,-6.6573 -7.9502,-15.68655 -7.9502,-25.10139"
       id="path279"
       inkscape:connector-curvature="0"
       style="fill:#000000;fill-opacity:0;fill-rule:evenodd;opacity:0.2" />
    <path
       d="m 1243.1797,227.4999 v 0 c -7.1989,0 -14.1029,-3.74004 -19.1934,-10.39734 -5.0904,-6.6573 -7.9502,-15.68655 -7.9502,-25.10139"
       id="path281"
       inkscape:connector-curvature="0"
       style="fill-rule:evenodd;stroke:#847791;stroke-width:3;stroke-linecap:butt;stroke-linejoin:round;opacity:0.2" />
    <path
       d="m 1243.1797,227.4999 v 0 c 7.199,0 14.103,-3.74004 19.1935,-10.39734 5.0903,-6.6573 7.9501,-15.68655 7.9501,-25.10139 h -27.1436 z"
       id="path283"
       inkscape:connector-curvature="0"
       style="fill:#000000;fill-opacity:0;fill-rule:evenodd;opacity:0.2" />
    <path
       d="m 1243.1797,227.4999 v 0 c 7.199,0 14.103,-3.74004 19.1935,-10.39734 5.0903,-6.6573 7.9501,-15.68655 7.9501,-25.10139"
       id="path285"
       inkscape:connector-curvature="0"
       style="fill:#000000;fill-opacity:0;fill-rule:evenodd;opacity:0.2" />
    <path
       d="m 1243.1797,227.4999 v 0 c 7.199,0 14.103,-3.74004 19.1935,-10.39734 5.0903,-6.6573 7.9501,-15.68655 7.9501,-25.10139"
       id="path287"
       inkscape:connector-curvature="0"
       style="fill-rule:evenodd;stroke:#847791;stroke-width:3;stroke-linecap:butt;stroke-linejoin:round;opacity:0.2" />
    <path
       d="m 1297.4668,156.50243 v 0 c -7.1989,0 -14.1029,3.74004 -19.1934,10.39734 -5.0903,6.6573 -7.9502,15.68654 -7.9502,25.10139 h 27.1436 z"
       id="path289"
       inkscape:connector-curvature="0"
       style="fill:#000000;fill-opacity:0;fill-rule:evenodd;opacity:0.2" />
    <path
       d="m 1297.4668,156.50243 v 0 c -7.1989,0 -14.1029,3.74004 -19.1934,10.39734 -5.0903,6.6573 -7.9502,15.68654 -7.9502,25.10139"
       id="path291"
       inkscape:connector-curvature="0"
       style="fill:#000000;fill-opacity:0;fill-rule:evenodd;opacity:0.2" />
    <path
       d="m 1297.4668,156.50243 v 0 c -7.1989,0 -14.1029,3.74004 -19.1934,10.39734 -5.0903,6.6573 -7.9502,15.68654 -7.9502,25.10139"
       id="path293"
       inkscape:connector-curvature="0"
       style="fill-rule:evenodd;stroke:#847791;stroke-width:3;stroke-linecap:butt;stroke-linejoin:round;opacity:0.2" />
    <path
       d="m 1297.4668,156.50243 v 0 c 7.199,0 14.103,3.74004 19.1935,10.39734 5.0903,6.6573 7.9501,15.68654 7.9501,25.10139 h -27.1436 z"
       id="path295"
       inkscape:connector-curvature="0"
       style="fill:#000000;fill-opacity:0;fill-rule:evenodd;opacity:0.2" />
    <path
       d="m 1297.4668,156.50243 v 0 c 7.199,0 14.103,3.74004 19.1935,10.39734 5.0903,6.6573 7.9501,15.68654 7.9501,25.10139"
       id="path297"
       inkscape:connector-curvature="0"
       style="fill:#000000;fill-opacity:0;fill-rule:evenodd;opacity:0.2" />
    <path
       d="m 1297.4668,156.50243 v 0 c 7.199,0 14.103,3.74004 19.1935,10.39734 5.0903,6.6573 7.9501,15.68654 7.9501,25.10139"
       id="path299"
       inkscape:connector-curvature="0"
       style="fill-rule:evenodd;stroke:#847791;stroke-width:3;stroke-linecap:butt;stroke-linejoin:round;opacity:0.2" />
    <path
       d="m 1351.754,227.4999 v 0 c -7.199,0 -14.103,-3.74004 -19.1935,-10.39734 -5.0903,-6.6573 -7.9502,-15.68655 -7.9502,-25.10139 h 27.1437 z"
       id="path301"
       inkscape:connector-curvature="0"
       style="fill:#000000;fill-opacity:0;fill-rule:evenodd;opacity:0.2" />
    <path
       d="m 1351.754,227.4999 v 0 c -7.199,0 -14.103,-3.74004 -19.1935,-10.39734 -5.0903,-6.6573 -7.9502,-15.68655 -7.9502,-25.10139"
       id="path303"
       inkscape:connector-curvature="0"
       style="fill:#000000;fill-opacity:0;fill-rule:evenodd;opacity:0.2" />
    <path
       d="m 1351.754,227.4999 v 0 c -7.199,0 -14.103,-3.74004 -19.1935,-10.39734 -5.0903,-6.6573 -7.9502,-15.68655 -7.9502,-25.10139"
       id="path305"
       inkscape:connector-curvature="0"
       style="fill-rule:evenodd;stroke:#847791;stroke-width:3;stroke-linecap:butt;stroke-linejoin:round;opacity:0.2" />
    <path
       d="m 1350.9073,227.4999 v 0 c 7.1989,0 14.103,-3.74004 19.1934,-10.39734 5.0904,-6.6573 7.9502,-15.68655 7.9502,-25.10139 h -27.1436 z"
       id="path307"
       inkscape:connector-curvature="0"
       style="fill:#000000;fill-opacity:0;fill-rule:evenodd;opacity:0.2" />
    <path
       d="m 1350.9073,227.4999 v 0 c 7.1989,0 14.103,-3.74004 19.1934,-10.39734 5.0904,-6.6573 7.9502,-15.68655 7.9502,-25.10139"
       id="path309"
       inkscape:connector-curvature="0"
       style="fill:#000000;fill-opacity:0;fill-rule:evenodd;opacity:0.2" />
    <path
       d="m 1350.9073,227.4999 v 0 c 7.1989,0 14.103,-3.74004 19.1934,-10.39734 5.0904,-6.6573 7.9502,-15.68655 7.9502,-25.10139"
       id="path311"
       inkscape:connector-curvature="0"
       style="fill-rule:evenodd;stroke:#847791;stroke-width:3;stroke-linecap:butt;stroke-linejoin:round;opacity:0.2" />
    <path
       d="m 1405.1945,156.50243 v 0 c -7.199,0 -14.103,3.74004 -19.1934,10.39734 -5.0904,6.6573 -7.9502,15.68654 -7.9502,25.10139 h 27.1436 z"
       id="path313"
       inkscape:connector-curvature="0"
       style="fill:#000000;fill-opacity:0;fill-rule:evenodd;opacity:0.2" />
    <path
       d="m 1405.1945,156.50243 v 0 c -7.199,0 -14.103,3.74004 -19.1934,10.39734 -5.0904,6.6573 -7.9502,15.68654 -7.9502,25.10139"
       id="path315"
       inkscape:connector-curvature="0"
       style="fill:#000000;fill-opacity:0;fill-rule:evenodd;opacity:0.2" />
    <path
       d="m 1405.1945,156.50243 v 0 c -7.199,0 -14.103,3.74004 -19.1934,10.39734 -5.0904,6.6573 -7.9502,15.68654 -7.9502,25.10139"
       id="path317"
       inkscape:connector-curvature="0"
       style="fill-rule:evenodd;stroke:#847791;stroke-width:3;stroke-linecap:butt;stroke-linejoin:round;opacity:0.2" />
    <path
       d="m 1405.1945,156.50243 v 0 c 7.1989,0 14.103,3.74004 19.1934,10.39734 5.0904,6.6573 7.9502,15.68654 7.9502,25.10139 h -27.1436 z"
       id="path319"
       inkscape:connector-curvature="0"
       style="fill:#000000;fill-opacity:0;fill-rule:evenodd;opacity:0.2" />
    <path
       d="m 1405.1945,156.50243 v 0 c 7.1989,0 14.103,3.74004 19.1934,10.39734 5.0904,6.6573 7.9502,15.68654 7.9502,25.10139"
       id="path321"
       inkscape:connector-curvature="0"
       style="fill:#000000;fill-opacity:0;fill-rule:evenodd;opacity:0.2" />
    <path
       d="m 1405.1945,156.50243 v 0 c 7.1989,0 14.103,3.74004 19.1934,10.39734 5.0904,6.6573 7.9502,15.68654 7.9502,25.10139"
       id="path323"
       inkscape:connector-curvature="0"
       style="fill-rule:evenodd;stroke:#847791;stroke-width:3;stroke-linecap:butt;stroke-linejoin:round;opacity:0.2" />
    <path
       d="m 1459.4816,227.4999 v 0 c -7.199,0 -14.103,-3.74004 -19.1934,-10.39734 -5.0904,-6.6573 -7.9502,-15.68655 -7.9502,-25.10139 h 27.1436 z"
       id="path325"
       inkscape:connector-curvature="0"
       style="fill:#000000;fill-opacity:0;fill-rule:evenodd;opacity:0.2" />
    <path
       d="m 1459.4816,227.4999 v 0 c -7.199,0 -14.103,-3.74004 -19.1934,-10.39734 -5.0904,-6.6573 -7.9502,-15.68655 -7.9502,-25.10139"
       id="path327"
       inkscape:connector-curvature="0"
       style="fill:#000000;fill-opacity:0;fill-rule:evenodd;opacity:0.2" />
    <path
       d="m 1459.4816,227.4999 v 0 c -7.199,0 -14.103,-3.74004 -19.1934,-10.39734 -5.0904,-6.6573 -7.9502,-15.68655 -7.9502,-25.10139"
       id="path329"
       inkscape:connector-curvature="0"
       style="fill-rule:evenodd;stroke:#847791;stroke-width:3;stroke-linecap:butt;stroke-linejoin:round;opacity:0.2" />
    <path
       d="m 1459.4816,227.4999 v 0 c 7.199,0 14.103,-3.74004 19.1934,-10.39734 5.0904,-6.6573 7.9502,-15.68655 7.9502,-25.10139 h -27.1436 z"
       id="path331"
       inkscape:connector-curvature="0"
       style="fill:#000000;fill-opacity:0;fill-rule:evenodd;opacity:0.2" />
    <path
       d="m 1459.4816,227.4999 v 0 c 7.199,0 14.103,-3.74004 19.1934,-10.39734 5.0904,-6.6573 7.9502,-15.68655 7.9502,-25.10139"
       id="path333"
       inkscape:connector-curvature="0"
       style="fill:#000000;fill-opacity:0;fill-rule:evenodd;opacity:0.2" />
    <path
       d="m 1513.7687,156.50243 v 0 c -7.1989,0 -14.103,3.74004 -19.1934,10.39734 -5.0904,6.6573 -7.9502,15.68654 -7.9502,25.10139 h 27.1436 z"
       id="path337"
       inkscape:connector-curvature="0"
       style="fill:#000000;fill-opacity:0;fill-rule:evenodd;opacity:0.2" />
    <path
       d="m 1513.7687,156.50243 v 0 c -7.1989,0 -14.103,3.74004 -19.1934,10.39734 -5.0904,6.6573 -7.9502,15.68654 -7.9502,25.10139"
       id="path339"
       inkscape:connector-curvature="0"
       style="fill:#000000;fill-opacity:0;fill-rule:evenodd;opacity:0.2" />
    <path
       d="m 1513.7687,156.50243 v 0 c 7.199,0 14.103,3.74004 19.1934,10.39734 5.0904,6.6573 7.9502,15.68654 7.9502,25.10139 h -27.1436 z"
       id="path343"
       inkscape:connector-curvature="0"
       style="fill:#000000;fill-opacity:0;fill-rule:evenodd;opacity:0.2" />
    <path
       d="m 1513.7687,156.50243 v 0 c 7.199,0 14.103,3.74004 19.1934,10.39734 5.0904,6.6573 7.9502,15.68654 7.9502,25.10139"
       id="path345"
       inkscape:connector-curvature="0"
       style="fill:#000000;fill-opacity:0;fill-rule:evenodd;opacity:0.2" />
    <path
       d="m 1568.0558,227.4999 v 0 c -7.1989,0 -14.103,-3.74004 -19.1934,-10.39734 -5.0904,-6.6573 -7.9502,-15.68655 -7.9502,-25.10139 h 27.1436 z"
       id="path349"
       inkscape:connector-curvature="0"
       style="fill:#000000;fill-opacity:0;fill-rule:evenodd;opacity:0.2" />
    <path
       d="m 1568.0558,227.4999 v 0 c -7.1989,0 -14.103,-3.74004 -19.1934,-10.39734 -5.0904,-6.6573 -7.9502,-15.68655 -7.9502,-25.10139"
       id="path351"
       inkscape:connector-curvature="0"
       style="fill:#000000;fill-opacity:0;fill-rule:evenodd;opacity:0.2" />
    <path
       d="m 1568.0558,227.4999 v 0 c -7.1989,0 -14.103,-3.74004 -19.1934,-10.39734 -5.0904,-6.6573 -7.9502,-15.68655 -7.9502,-25.10139"
       id="path353"
       inkscape:connector-curvature="0"
       style="fill-rule:evenodd;stroke:#847791;stroke-width:3;stroke-linecap:butt;stroke-linejoin:round;opacity:0.2" />
  </g>
</svg>
